<?xml version="1.0" standalone="no"?>
<!DOCTYPE svg PUBLIC "-//W3C//DTD SVG 20010904//EN"
 "http://www.w3.org/TR/2001/REC-SVG-20010904/DTD/svg10.dtd">
<svg version="1.0" xmlns="http://www.w3.org/2000/svg"
 width="320.000000pt" height="80.000000pt" viewBox="0 0 320.000000 80.000000"
 preserveAspectRatio="xMidYMid meet">

<g transform="translate(0.000000,80.000000) scale(0.100000,-0.100000)"
fill="#000000" stroke="none">
<path d="M820 609 c0 -19 30 -341 36 -387 l5 -43 67 3 67 3 117 210 c65 116
118 213 118 218 0 4 -25 7 -56 7 l-55 0 -68 -142 c-37 -79 -74 -159 -83 -178
l-17 -35 -2 35 c-1 19 -4 98 -8 175 l-6 140 -57 3 c-40 2 -58 -1 -58 -9z"/>
<path d="M1296 603 c-11 -38 -86 -394 -86 -408 0 -13 23 -15 139 -15 77 0 142
3 144 8 2 4 7 24 11 44 l7 37 -89 3 -89 3 11 45 11 45 73 3 c46 2 74 7 77 15
2 7 6 24 9 40 l6 27 -75 0 -75 0 6 28 c3 15 7 33 10 40 2 8 29 12 88 12 47 0
87 3 89 8 2 4 7 24 11 45 l7 37 -140 0 c-124 0 -140 -2 -145 -17z"/>
<path d="M1690 616 c0 -3 -20 -98 -45 -213 -25 -114 -45 -211 -45 -215 0 -5
24 -8 54 -8 l53 0 12 63 c19 96 20 99 48 95 22 -3 30 -14 55 -80 l30 -78 54 0
c30 0 54 4 54 8 0 4 -13 39 -30 77 -16 39 -30 75 -30 80 0 6 13 16 30 23 42
19 72 66 78 122 9 93 -60 130 -245 130 -40 0 -73 -2 -73 -4z m188 -92 c59 -41
1 -114 -89 -114 -33 0 -33 -2 -18 73 12 57 12 57 48 57 20 0 47 -7 59 -16z"/>
<path d="M2116 609 c-3 -8 -23 -102 -46 -209 -23 -107 -43 -201 -45 -207 -3
-9 11 -13 51 -13 35 0 56 4 58 12 2 7 10 41 16 76 l13 62 56 0 c118 0 192 45
209 127 15 66 -2 111 -51 136 -50 26 -254 38 -261 16z m201 -95 c18 -25 16
-47 -8 -78 -17 -22 -28 -26 -73 -26 l-53 0 8 48 c17 86 16 85 67 79 28 -3 51
-12 59 -23z"/>
<path d="M2476 417 c-64 -113 -119 -212 -122 -221 -5 -14 2 -16 50 -16 l56 0
25 50 25 50 70 0 70 0 0 -50 0 -50 60 0 c42 0 60 4 59 13 0 6 -10 104 -22 217
l-22 205 -67 3 -66 3 -116 -204z m173 -19 l1 -38 -49 0 -49 0 41 92 42 91 7
-54 c3 -30 6 -71 7 -91z"/>
<path d="M2814 603 c2 -10 19 -74 37 -141 30 -116 31 -128 20 -188 -6 -35 -14
-70 -17 -79 -5 -12 4 -15 49 -15 62 0 58 -5 78 95 10 51 26 80 110 198 55 75
99 140 99 143 0 3 -26 4 -57 2 l-58 -3 -52 -90 c-30 -49 -57 -91 -62 -93 -5
-2 -15 39 -23 90 l-13 93 -59 3 c-52 3 -57 1 -52 -15z"/>
</g>
</svg>
