<svg id="visual" viewBox="0 0 960 540" width="960" height="540" xmlns="http://www.w3.org/2000/svg" xmlns:xlink="http://www.w3.org/1999/xlink" version="1.1"><rect x="0" y="0" width="960" height="540" fill="#140021"></rect><path d="M0 282L137 282L137 270L274 270L274 277L411 277L411 219L549 219L549 251L686 251L686 220L823 220L823 285L960 285L960 307L960 0L960 0L823 0L823 0L686 0L686 0L549 0L549 0L411 0L411 0L274 0L274 0L137 0L137 0L0 0Z" fill="#2dbe60"></path><path d="M0 215L137 215L137 215L274 215L274 213L411 213L411 227L549 227L549 138L686 138L686 192L823 192L823 147L960 147L960 172L960 0L960 0L823 0L823 0L686 0L686 0L549 0L549 0L411 0L411 0L274 0L274 0L137 0L137 0L0 0Z" fill="#2bb252"></path><path d="M0 98L137 98L137 91L274 91L274 118L411 118L411 130L549 130L549 80L686 80L686 112L823 112L823 89L960 89L960 103L960 0L960 0L823 0L823 0L686 0L686 0L549 0L549 0L411 0L411 0L274 0L274 0L137 0L137 0L0 0Z" fill="#28a745"></path></svg>