<svg id="visual" viewBox="0 0 960 540" width="960" height="540" xmlns="http://www.w3.org/2000/svg" xmlns:xlink="http://www.w3.org/1999/xlink" version="1.1"><rect x="0" y="0" width="960" height="540" fill="#140021"></rect><path d="M0 256L137 256L137 268L274 268L274 261L411 261L411 319L549 319L549 287L686 287L686 318L823 318L823 253L960 253L960 231L960 541L960 541L823 541L823 541L686 541L686 541L549 541L549 541L411 541L411 541L274 541L274 541L137 541L137 541L0 541Z" fill="#2dbe60"></path><path d="M0 323L137 323L137 323L274 323L274 325L411 325L411 311L549 311L549 400L686 400L686 346L823 346L823 391L960 391L960 366L960 541L960 541L823 541L823 541L686 541L686 541L549 541L549 541L411 541L411 541L274 541L274 541L137 541L137 541L0 541Z" fill="#2bb252"></path><path d="M0 440L137 440L137 447L274 447L274 420L411 420L411 408L549 408L549 458L686 458L686 426L823 426L823 449L960 449L960 435L960 541L960 541L823 541L823 541L686 541L686 541L549 541L549 541L411 541L411 541L274 541L274 541L137 541L137 541L0 541Z" fill="#28a745"></path></svg>